# xmcd
#
# Track frame offsets:
#	150
#	579
#	19022
#	33476
#	34090
#	45422
#	64578
#	83173
#	91035
#	105157
#	105790
#	124428
#	148228
#	148729
#	172060
#	180593
#
# Disc length: 2417 seconds
# Revision: 0
# Processed by: cddbd v1.5.2PL0 Copyright (c) Steve Scherf et al.
# Submitted via: dBpowerAMP V12.0
#
DISCID=c5096f10
DTITLE=Nathan Ward's Driving Conditions - Nathan Ward's Driving Conditions
DYEAR=2006
DGENRE=lues Rock
TTITLE0=Hands On The Wheel
TTITLE1=London Still
TTITLE2=History repeating
TTITLE3=Left Lane Ends
TTITLE4=Skip James
TTITLE5=Undercovers
TTITLE6=Baby Please Don't Go
TTITLE7=Come Back To Me
TTITLE8=Stay A While
TTITLE9=Hazardous
TTITLE10=Langs Licks
TTITLE11=Rubby Dub
TTITLE12=Breakdown
TTITLE13=We'll Be Gone
TTITLE14=DATA
TTITLE15=DATA
EXTD=
EXTT0=
EXTT1=
EXTT2=
EXTT3=
EXTT4=
EXTT5=
EXTT6=
EXTT7=
EXTT8=
EXTT9=
EXTT10=
EXTT11=
EXTT12=
EXTT13=
EXTT14=
EXTT15=
PLAYORDER=
